<?xml version="1.0" standalone="no"?>
<!DOCTYPE svg PUBLIC "-//W3C//DTD SVG 20010904//EN"
 "http://www.w3.org/TR/2001/REC-SVG-20010904/DTD/svg10.dtd">
<svg version="1.0" xmlns="http://www.w3.org/2000/svg"
 width="1024.000000pt" height="1024.000000pt" viewBox="0 0 1024.000000 1024.000000"
 preserveAspectRatio="xMidYMid meet">
<metadata>
Created by potrace 1.11, written by Peter Selinger 2001-2013
</metadata>
<g transform="translate(0.000000,1024.000000) scale(0.100000,-0.100000)"
fill="#000000" stroke="none">
<path d="M2790 10224 c-129 -33 -253 -123 -324 -236 -75 -119 -82 -168 -81
-571 0 -180 -2 -328 -5 -328 -3 -1 -185 -3 -405 -4 -220 -2 -411 -5 -424 -9
-104 -25 -193 -72 -262 -137 -70 -69 -110 -127 -140 -209 -24 -64 -24 -69 -27
-513 -2 -402 -1 -451 14 -480 46 -88 159 -109 232 -43 29 25 51 66 51 92 -1
10 0 196 0 412 2 426 3 441 57 505 16 19 51 45 78 58 48 23 50 24 439 24 l391
0 1 -165 c2 -168 7 -200 48 -295 66 -154 218 -273 390 -305 79 -15 199 -8 252
14 19 8 35 13 35 11 0 -6 106 51 127 68 57 46 125 125 153 179 55 108 63 147
64 328 l2 165 558 0 c361 0 560 -3 564 -10 3 -5 7 -77 9 -160 1 -82 4 -159 6
-170 18 -91 72 -197 136 -263 44 -46 146 -122 164 -122 5 0 23 -6 40 -14 60
-28 112 -36 207 -32 91 4 135 14 218 53 110 50 214 164 260 283 31 82 35 112
38 265 1 77 3 147 3 155 1 13 69 15 563 15 l562 0 2 -155 c1 -175 5 -198 41
-290 48 -121 171 -247 276 -282 17 -6 37 -14 42 -19 18 -13 136 -30 194 -28
169 7 311 84 417 224 30 39 72 128 79 167 2 11 7 29 11 41 4 12 9 90 10 172 1
83 3 155 3 160 1 12 738 13 791 1 48 -12 114 -63 142 -111 l23 -40 3 -1895 c6
-4626 5 -4462 27 -4492 26 -34 69 -59 111 -65 46 -6 113 28 141 72 l23 35 0
3167 c0 2140 -4 3181 -11 3208 -5 22 -11 47 -12 55 -5 38 -74 154 -120 203
-70 73 -130 111 -223 143 l-79 27 -405 2 c-223 2 -407 3 -410 4 -3 0 -5 160
-6 354 0 331 -2 356 -22 419 -34 108 -102 201 -202 280 -19 15 -40 28 -47 28
-6 0 -13 3 -15 8 -4 8 -90 41 -133 50 -38 8 -191 8 -230 0 -84 -17 -184 -71
-256 -139 -44 -42 -104 -119 -92 -119 4 0 3 -4 -2 -8 -12 -8 -37 -65 -56 -127
-9 -28 -13 -143 -15 -390 -1 -192 -2 -352 -3 -355 -2 -9 -1109 -6 -1117 3 -4
4 -9 162 -10 350 -1 188 -4 351 -7 362 -3 11 -9 34 -13 50 -23 92 -110 214
-199 283 -33 25 -123 70 -170 84 -52 16 -206 18 -265 4 -189 -45 -341 -190
-395 -376 -16 -57 -19 -107 -21 -395 -1 -181 -2 -339 -3 -350 -1 -20 -6 -20
-558 -19 -307 1 -560 2 -563 3 -3 0 -5 156 -5 346 0 190 -3 345 -8 345 -4 0
-5 5 -2 10 4 6 -1 34 -10 63 -62 191 -208 329 -392 372 -70 16 -187 16 -253
-1z m231 -308 c20 -8 51 -32 69 -52 66 -76 64 -46 65 -724 1 -338 -3 -628 -8
-645 -5 -16 -9 -36 -10 -43 -1 -22 -68 -92 -109 -113 -115 -59 -242 -22 -310
91 l-33 54 0 631 c0 590 1 633 19 678 22 58 55 91 121 123 57 27 133 27 196 0z
m2200 0 c50 -21 105 -86 122 -143 11 -39 13 -170 12 -668 -1 -610 -1 -621 -22
-660 -92 -175 -334 -176 -425 -1 -22 41 -22 46 -23 666 -1 576 0 629 16 674
10 27 28 60 41 74 27 29 86 68 114 75 34 9 128 -1 165 -17z m2169 12 c65 -21
109 -58 143 -123 20 -39 20 -52 22 -664 1 -712 3 -693 -78 -767 -75 -67 -164
-82 -253 -40 -58 27 -118 94 -130 146 -4 19 -8 310 -8 645 -1 538 1 616 15
658 24 72 82 125 159 147 26 8 103 6 130 -2z"/>
<path d="M1241 7249 c-38 -8 -79 -36 -95 -65 -6 -10 -14 -22 -19 -25 -8 -6 -5
-6724 4 -6751 3 -10 8 -21 12 -24 4 -4 7 -15 7 -25 0 -10 12 -40 26 -66 80
-146 203 -243 352 -279 48 -11 643 -13 3612 -11 l3555 2 64 23 c145 52 251
150 317 292 13 28 21 50 20 50 -2 0 2 21 10 46 11 36 13 166 14 640 0 664 3
641 -69 690 -72 49 -177 20 -214 -59 -15 -31 -17 -100 -17 -618 l-1 -584 -23
-51 c-43 -92 -117 -132 -246 -132 -47 0 -89 -1 -95 -2 -5 -1 -14 -1 -20 0 -14
2 -208 2 -220 0 -5 -1 -14 -2 -20 -1 -14 2 -689 3 -700 1 -6 -2 -14 -1 -20 0
-14 2 -208 2 -220 0 -5 -1 -14 -2 -20 -1 -14 2 -689 3 -700 1 -6 -2 -14 -1
-20 0 -14 2 -208 2 -220 0 -5 -1 -14 -2 -20 -1 -14 2 -689 3 -700 1 -6 -2 -14
-1 -20 0 -14 2 -208 2 -220 0 -5 -1 -14 -2 -20 -1 -14 2 -689 3 -700 1 -6 -2
-14 -1 -20 0 -14 2 -208 2 -220 0 -5 -1 -14 -2 -20 -1 -14 2 -689 3 -700 1 -6
-2 -14 -1 -20 0 -14 2 -208 2 -220 0 -5 -1 -14 -2 -20 -1 -14 2 -689 3 -700 1
-6 -2 -14 -1 -20 0 -14 2 -208 2 -220 0 -5 -1 -14 -2 -20 -1 -14 2 -689 3
-700 1 -6 -2 -12 -2 -15 -1 -3 1 -34 3 -70 5 -103 5 -169 48 -210 137 -19 44
-19 80 -20 3368 0 3144 -1 3326 -18 3360 -30 61 -96 94 -161 80z"/>
<path d="M3610 7209 c-19 -12 -64 -57 -100 -101 -36 -45 -70 -86 -75 -92 -12
-13 -107 -126 -118 -141 -4 -5 -21 -26 -38 -45 -17 -19 -40 -48 -52 -63 -12
-16 -29 -36 -37 -45 -9 -10 -47 -55 -85 -102 -39 -47 -77 -93 -85 -102 -8 -9
-64 -77 -125 -151 -60 -75 -115 -138 -122 -141 -9 -4 -111 145 -143 209 -20
40 -63 94 -86 110 -41 27 -124 26 -161 -1 -61 -45 -82 -105 -59 -173 12 -35
294 -492 323 -522 39 -42 118 -52 173 -24 26 13 34 22 110 115 24 30 51 62 60
71 8 9 26 30 40 49 14 18 33 42 43 54 11 11 33 38 50 60 18 21 37 43 42 50 6
6 68 81 139 166 70 85 138 166 150 180 11 14 41 50 66 80 25 30 47 57 50 60 3
3 25 30 50 60 25 30 53 62 62 71 10 9 18 21 18 27 0 6 8 17 18 24 21 16 85 95
101 126 7 13 13 44 13 68 0 110 -126 180 -222 123z"/>
<path d="M4375 6673 c-115 -20 -193 -59 -270 -137 -50 -50 -104 -132 -111
-168 -1 -5 -2 -9 -4 -10 -13 -18 -27 -122 -23 -180 11 -153 85 -278 213 -362
67 -44 112 -61 190 -74 55 -9 3277 -8 3305 1 11 3 36 9 55 12 19 3 42 13 51
21 8 7 21 14 28 14 14 0 109 71 134 100 162 192 160 455 -6 636 -48 53 -63 64
-142 102 -97 48 -15 46 -1755 47 -905 1 -1654 0 -1665 -2z m3296 -316 c82 -40
116 -145 75 -226 -18 -34 -74 -82 -103 -88 -23 -5 -3232 -6 -3254 -1 -34 8
-89 54 -104 88 -44 98 -2 201 97 235 20 7 561 10 1641 10 1518 -1 1614 -2
1648 -18z"/>
<path d="M3615 5233 c-16 -8 -47 -36 -68 -61 -20 -26 -49 -61 -65 -78 -15 -18
-52 -62 -82 -99 -30 -37 -63 -77 -74 -89 -10 -11 -44 -52 -75 -91 -31 -38 -69
-82 -84 -97 -15 -16 -24 -28 -20 -28 4 0 3 -4 -2 -8 -6 -4 -33 -34 -60 -67
-28 -33 -52 -62 -55 -65 -3 -3 -48 -57 -100 -120 -52 -63 -107 -128 -122 -145
-15 -16 -28 -33 -28 -37 0 -32 -55 41 -117 155 -37 68 -102 153 -128 168 -69
40 -168 9 -204 -63 -35 -71 -26 -97 120 -336 167 -272 188 -302 227 -325 37
-22 90 -24 132 -7 15 6 59 48 97 93 37 45 72 87 78 93 5 6 26 30 45 54 19 24
93 114 165 199 71 86 134 162 140 169 5 7 17 21 26 30 8 9 44 53 80 97 35 44
71 87 79 95 8 8 33 38 54 65 22 28 47 57 55 67 9 9 26 29 38 45 12 15 38 46
58 68 104 118 125 177 91 253 -32 71 -129 102 -201 65z"/>
<path d="M4427 4694 c-1 -1 -25 -4 -53 -8 -316 -37 -503 -389 -359 -676 53
-105 171 -203 287 -238 65 -19 98 -19 1707 -20 1044 0 1657 4 1684 10 185 43
338 203 364 383 22 151 -23 295 -127 404 -50 53 -153 116 -205 126 -16 3 -46
8 -65 11 -28 5 -3227 13 -3233 8z m3228 -314 c40 -13 99 -77 103 -112 1 -13 4
-32 6 -43 5 -28 -23 -96 -51 -123 -56 -52 43 -49 -1704 -48 l-1625 1 -41 27
c-95 63 -102 197 -13 271 26 23 54 32 119 40 8 1 725 1 1593 0 1163 -1 1587
-4 1613 -13z"/>
<path d="M3624 3245 c-19 -8 -70 -60 -130 -132 -54 -65 -101 -120 -104 -123
-3 -3 -25 -30 -50 -60 -25 -30 -52 -63 -60 -73 -8 -10 -28 -33 -43 -50 -16
-18 -45 -53 -65 -79 -20 -27 -40 -48 -44 -48 -4 0 -8 -5 -8 -10 0 -6 -10 -21
-22 -34 -13 -13 -36 -40 -53 -61 -16 -22 -39 -49 -50 -61 -11 -12 -67 -79
-125 -148 l-104 -126 -23 37 c-12 21 -27 43 -32 50 -6 7 -11 15 -11 18 0 4
-20 38 -45 76 -25 38 -45 73 -45 77 0 4 -13 22 -29 40 -96 108 -254 55 -266
-90 -3 -40 -6 -35 209 -386 28 -46 60 -99 71 -117 50 -85 106 -119 177 -108
32 5 88 32 88 43 0 3 12 19 26 35 14 17 42 50 62 74 46 56 94 113 107 127 6 6
24 28 40 49 17 21 35 43 40 49 6 6 30 36 54 66 25 30 54 65 65 76 12 12 32 36
46 54 14 18 37 46 52 64 52 61 143 173 173 211 17 21 37 45 46 54 12 13 139
165 171 206 5 6 20 23 33 38 59 66 71 128 39 194 -33 65 -121 97 -190 68z"/>
<path d="M4369 2706 c-2 -2 -19 -7 -38 -9 -90 -14 -232 -111 -279 -189 -9 -16
-20 -28 -24 -28 -4 0 -8 -7 -8 -15 0 -9 -6 -26 -14 -38 -15 -22 -21 -44 -35
-122 -18 -100 13 -238 72 -324 39 -57 110 -126 148 -143 16 -7 29 -16 29 -20
0 -5 9 -8 20 -8 11 0 20 -4 20 -10 0 -5 3 -9 8 -8 4 1 32 -4 61 -11 45 -11
347 -14 1670 -14 889 0 1637 3 1663 7 152 21 290 122 353 259 41 90 45 105 49
192 3 85 -9 136 -55 230 -27 55 -123 165 -145 165 -8 0 -14 4 -14 9 0 11 -109
60 -152 68 -34 7 -3322 15 -3329 9z m3304 -320 c30 -15 49 -35 68 -70 45 -83
19 -178 -63 -225 l-38 -22 -1626 0 -1627 0 -38 26 c-71 47 -97 115 -73 194 16
55 47 87 100 106 31 10 347 13 1647 13 l1608 -1 42 -21z"/>
</g>
</svg>
